<svg width="27" height="22" viewBox="0 0 27 22" fill="none" xmlns="http://www.w3.org/2000/svg">
<path d="M1.65498 9.57651L17.7401 3.04964C19.3274 2.36976 24.7103 0.194131 24.7103 0.194131C24.7103 0.194131 27.1948 -0.757705 26.9877 1.5539C26.9187 2.50573 26.3666 5.83716 25.8145 9.44576L24.0892 20.1252C24.0892 20.1252 23.9512 21.6889 22.778 21.9608C21.6048 22.2328 19.6725 21.009 19.3274 20.737C19.0513 20.5331 14.1515 17.4736 12.3572 15.9779C11.8741 15.5699 11.322 14.7541 12.4262 13.8022C14.9106 11.5586 17.8781 8.77111 19.6725 7.00342C20.5006 6.18756 21.3287 4.28389 17.8781 6.59549L8.14212 13.0439C8.14212 13.0439 7.03792 13.7238 4.96756 13.1119C2.8972 12.5 0.48177 11.6841 0.48177 11.6841C0.48177 11.6841 -1.17452 10.6643 1.65498 9.57651Z" fill="#5B0769"/>
</svg>

