<svg width="31" height="18" viewBox="0 0 31 18" fill="none" xmlns="http://www.w3.org/2000/svg">
<path fill-rule="evenodd" clip-rule="evenodd" d="M15.1674 17.9245H17.0203C17.0203 17.9245 17.5799 17.8617 17.866 17.5484C18.129 17.2605 18.1206 16.72 18.1206 16.72C18.1206 16.72 18.0843 14.1896 19.238 13.8169C20.3758 13.4496 21.8365 16.2625 23.3846 17.3442C24.5554 18.1625 25.445 17.9834 25.445 17.9834L29.585 17.9245C29.585 17.9245 31.7505 17.7885 30.7236 16.0555C30.6396 15.914 30.1254 14.7736 27.6454 12.4307C25.0493 9.9784 25.3973 10.3752 28.5243 6.13333C30.4286 3.55007 31.1898 1.97307 30.9519 1.29767C30.7253 0.654159 29.3245 0.824148 29.3245 0.824148L24.6633 0.853478C24.6633 0.853478 24.3175 0.805594 24.0614 0.961583C23.8109 1.11413 23.6501 1.47055 23.6501 1.47055C23.6501 1.47055 22.9121 3.46941 21.9285 5.16962C19.8529 8.75671 19.0229 8.94658 18.6836 8.72349C17.8943 8.2043 18.0915 6.63819 18.0915 5.52527C18.0915 2.04884 18.6096 0.599385 17.0826 0.22419C16.576 0.0997537 16.2028 0.0174257 14.907 0.0039823C13.2437 -0.0132387 11.8362 0.00920466 11.0392 0.406621C10.5088 0.670937 10.0997 1.25978 10.349 1.29367C10.6572 1.33545 11.3547 1.48532 11.7246 1.99751C12.2024 2.65913 12.1857 4.14436 12.1857 4.14436C12.1857 4.14436 12.4602 8.23663 11.5447 8.74482C10.9165 9.09346 10.0545 8.38173 8.20402 5.12729C7.25606 3.4603 6.54007 1.61743 6.54007 1.61743C6.54007 1.61743 6.4022 1.27312 6.15594 1.0888C5.85727 0.865478 5.43995 0.794706 5.43995 0.794706L1.01041 0.824148C1.01041 0.824148 0.345613 0.843035 0.10131 1.13735C-0.11603 1.39933 0.0839546 1.94051 0.0839546 1.94051C0.0839546 1.94051 3.55157 10.1979 7.47831 14.3592C11.0792 18.1749 15.1674 17.9245 15.1674 17.9245Z" fill="#5B0769"/>
</svg>

