<svg width="227" height="211" viewBox="0 0 227 211" fill="none" xmlns="http://www.w3.org/2000/svg">
<path fill-rule="evenodd" clip-rule="evenodd" d="M61.1357 101.961C56.8797 102.199 54.8635 106.51 42.2828 106.781L41.9985 112.381L86.5945 112.265L86.6476 107.02C78.3469 107.115 69.4398 105.842 61.1357 101.961Z" fill="white"/>
<path fill-rule="evenodd" clip-rule="evenodd" d="M61.3701 100.752L61.6436 100.88C69.7417 104.665 78.4592 105.92 86.6337 105.826L87.8569 105.812L87.7795 113.456L40.739 113.578L41.1434 105.611L42.2569 105.587C48.3906 105.455 51.8852 104.344 54.35 103.265C54.9764 102.991 55.5437 102.716 56.0879 102.449C56.1569 102.415 56.2259 102.381 56.2947 102.347C56.7608 102.117 57.2221 101.89 57.672 101.688C58.7183 101.218 59.7958 100.84 61.0685 100.769L61.3701 100.752ZM43.4225 107.939L43.2578 111.184L85.4092 111.074L85.4382 108.218C77.4554 108.18 68.9336 106.86 60.9181 103.176C60.1728 103.259 59.4736 103.497 58.655 103.865C58.2472 104.048 57.828 104.255 57.3577 104.486C57.2885 104.52 57.2182 104.555 57.1466 104.59C56.5966 104.861 55.9897 105.156 55.3118 105.452C52.7217 106.585 49.2007 107.696 43.4225 107.939Z" fill="black"/>
<path fill-rule="evenodd" clip-rule="evenodd" d="M61.1356 122.716C56.8796 122.478 54.8634 118.167 42.2827 117.897L41.9984 112.296L86.5944 112.412L86.6475 117.657C78.3469 117.562 69.4397 118.835 61.1356 122.716Z" fill="white"/>
<path fill-rule="evenodd" clip-rule="evenodd" d="M40.739 111.099L87.7795 111.221L87.8569 118.865L86.6337 118.851C78.4592 118.757 69.7417 120.012 61.6436 123.797L61.3701 123.925L61.0685 123.908C59.7958 123.837 58.7183 123.459 57.672 122.989C57.2221 122.787 56.7608 122.56 56.2947 122.33C56.2258 122.296 56.1569 122.262 56.0879 122.228C55.5437 121.961 54.9764 121.686 54.35 121.412C51.8852 120.333 48.3906 119.222 42.2569 119.09L41.1434 119.066L40.739 111.099ZM43.2578 113.493L43.4225 116.738C49.2007 116.981 52.7218 118.092 55.3118 119.225C55.9897 119.522 56.5966 119.816 57.1466 120.087C57.2182 120.122 57.2884 120.157 57.3576 120.191C57.828 120.422 58.2472 120.629 58.655 120.812C59.4736 121.18 60.1728 121.418 60.9181 121.501C68.9336 117.817 77.4554 116.497 85.4382 116.459L85.4093 113.603L43.2578 113.493Z" fill="black"/>
<path fill-rule="evenodd" clip-rule="evenodd" d="M60.4861 102.242C60.1946 108.366 59.6971 110.129 55.5407 112.26C55.32 112.322 55.3199 112.355 55.375 112.378C55.3199 112.401 55.32 112.434 55.5407 112.496C59.6971 114.627 60.1946 116.39 60.4861 122.514C60.9841 116.328 63.501 113.57 65.3961 112.496C65.6167 112.434 65.6169 112.401 65.5618 112.378C65.6169 112.355 65.6167 112.322 65.3961 112.26C63.501 111.186 60.9841 108.428 60.4861 102.242Z" fill="white"/>
<path fill-rule="evenodd" clip-rule="evenodd" d="M59.2904 102.186L61.6794 102.147C62.1411 107.883 64.394 110.27 65.8844 111.162C65.9134 111.172 65.9427 111.183 65.9719 111.195L65.9725 111.195C66.0287 111.218 66.2142 111.293 66.3892 111.452C66.4824 111.537 66.6566 111.721 66.7421 112.017C66.7774 112.139 66.792 112.261 66.7893 112.378C66.792 112.496 66.7774 112.617 66.7421 112.74C66.6566 113.036 66.4824 113.22 66.3892 113.304C66.2142 113.464 66.0287 113.539 65.9725 113.561L65.9719 113.561C65.9427 113.573 65.9134 113.584 65.8844 113.594C64.394 114.486 62.1411 116.874 61.6794 122.609L59.2904 122.57C59.1426 119.466 58.942 117.734 58.3755 116.507C57.8666 115.406 57.0006 114.599 55.0858 113.606C55.0461 113.592 55.0054 113.578 54.9648 113.561L54.9642 113.561C54.908 113.539 54.7225 113.464 54.5476 113.304C54.4543 113.22 54.2802 113.036 54.1946 112.74C54.1593 112.617 54.1448 112.496 54.1475 112.378C54.1448 112.261 54.1593 112.139 54.1946 112.017C54.2801 111.721 54.4543 111.537 54.5475 111.452C54.7225 111.293 54.9081 111.218 54.9642 111.195L54.9649 111.195C55.0054 111.179 55.0461 111.164 55.0858 111.151C57.0006 110.158 57.8666 109.35 58.3755 108.249C58.942 107.023 59.1426 105.29 59.2904 102.186ZM60.7999 108.638C60.7239 108.848 60.6409 109.051 60.55 109.248C59.9857 110.469 59.1541 111.38 58.0138 112.183L58.4818 112.378L58.0138 112.573C59.1541 113.376 59.9857 114.287 60.55 115.508C60.6409 115.705 60.7239 115.908 60.7999 116.118C61.4798 114.625 62.3144 113.503 63.1768 112.679L62.4549 112.378L63.1768 112.078C62.3144 111.253 61.4798 110.132 60.7999 108.638Z" fill="black"/>
<path fill-rule="evenodd" clip-rule="evenodd" d="M165.23 102.984C169.486 103.222 171.502 107.534 184.083 107.804L184.367 113.404L139.771 113.288L139.718 108.043C148.019 108.138 156.926 106.865 165.23 102.984Z" fill="white"/>
<path fill-rule="evenodd" clip-rule="evenodd" d="M164.995 101.775L165.297 101.792C166.57 101.863 167.647 102.241 168.694 102.711C169.143 102.913 169.605 103.14 170.071 103.37C170.14 103.404 170.209 103.438 170.278 103.472C170.822 103.739 171.389 104.015 172.016 104.289C174.48 105.367 177.975 106.478 184.109 106.61L185.222 106.634L185.627 114.602L138.586 114.479L138.509 106.835L139.732 106.849C147.906 106.943 156.624 105.688 164.722 101.903L164.995 101.775ZM165.447 104.2C157.432 107.883 148.91 109.203 140.927 109.241L140.956 112.098L183.108 112.207L182.943 108.962C177.165 108.72 173.644 107.609 171.054 106.475C170.376 106.179 169.769 105.884 169.219 105.613C169.147 105.578 169.077 105.544 169.008 105.509C168.538 105.278 168.118 105.071 167.711 104.888C166.892 104.521 166.193 104.282 165.447 104.2Z" fill="black"/>
<path fill-rule="evenodd" clip-rule="evenodd" d="M165.23 123.739C169.486 123.501 171.502 119.19 184.083 118.92L184.367 113.319L139.771 113.435L139.718 118.68C148.019 118.585 156.926 119.858 165.23 123.739Z" fill="white"/>
<path fill-rule="evenodd" clip-rule="evenodd" d="M185.627 112.122L185.222 120.089L184.109 120.113C177.975 120.245 174.48 121.356 172.016 122.435C171.389 122.709 170.822 122.984 170.278 123.252C170.209 123.286 170.14 123.32 170.071 123.354C169.605 123.583 169.143 123.81 168.694 124.012C167.647 124.482 166.57 124.86 165.297 124.931L164.995 124.948L164.722 124.82C156.624 121.036 147.906 119.78 139.732 119.874L138.509 119.888L138.586 112.244L185.627 112.122ZM140.956 114.626L140.927 117.482C148.91 117.52 157.432 118.84 165.447 122.524C166.193 122.441 166.892 122.203 167.711 121.835C168.118 121.652 168.538 121.446 169.008 121.214C169.077 121.18 169.147 121.145 169.219 121.11C169.769 120.84 170.376 120.545 171.054 120.248C173.644 119.115 177.165 118.004 182.943 117.761L183.108 114.516L140.956 114.626Z" fill="black"/>
<path fill-rule="evenodd" clip-rule="evenodd" d="M165.879 103.269C165.381 109.455 162.864 112.201 160.969 113.275C160.776 113.329 160.758 113.37 160.792 113.393L160.804 113.405C160.759 113.428 160.762 113.465 160.969 113.523C162.864 114.597 165.381 117.343 165.879 123.529C166.171 117.405 166.668 115.654 170.825 113.523C171.032 113.465 171.035 113.428 170.99 113.405C170.987 113.403 170.994 113.394 170.99 113.393C171.035 113.37 171.032 113.333 170.825 113.275C166.668 111.144 166.171 109.393 165.879 103.269Z" fill="white"/>
<path fill-rule="evenodd" clip-rule="evenodd" d="M160.479 112.178C161.97 111.287 164.224 108.911 164.686 103.174L167.075 103.212C167.223 106.317 167.423 108.046 167.99 109.269C168.498 110.367 169.364 111.173 171.282 112.167C171.322 112.18 171.364 112.196 171.406 112.213C171.472 112.241 171.645 112.316 171.811 112.467C171.95 112.594 172.229 112.931 172.213 113.399C172.229 113.867 171.95 114.204 171.811 114.331C171.645 114.482 171.472 114.557 171.406 114.584C171.364 114.602 171.322 114.617 171.282 114.631C169.364 115.625 168.498 116.43 167.99 117.529C167.423 118.752 167.223 120.481 167.075 123.585L164.686 123.624C164.224 117.887 161.97 115.511 160.479 114.619C160.449 114.609 160.418 114.597 160.388 114.584C160.322 114.557 160.149 114.482 159.984 114.331C159.843 114.203 159.562 113.862 159.581 113.389C159.581 113.385 159.581 113.381 159.581 113.377C159.579 112.824 159.931 112.507 160.042 112.418C160.191 112.298 160.354 112.223 160.479 112.178ZM170.414 112.346L170.436 112.335C170.435 112.335 170.434 112.336 170.433 112.336C170.429 112.338 170.422 112.342 170.414 112.346ZM168.535 113.325C167.301 112.492 166.41 111.553 165.816 110.27C165.725 110.073 165.642 109.87 165.566 109.66C164.798 111.345 163.832 112.555 162.852 113.399C163.832 114.243 164.798 115.452 165.566 117.138C165.642 116.928 165.725 116.725 165.816 116.528C166.382 115.306 167.216 114.396 168.361 113.593L168.172 113.514L168.535 113.325ZM170.383 114.434C170.407 114.448 170.425 114.457 170.433 114.461C170.434 114.462 170.435 114.463 170.436 114.463L170.439 114.457L170.385 114.435C170.371 114.426 170.357 114.418 170.343 114.409C170.357 114.418 170.371 114.427 170.383 114.434ZM170.44 114.458L170.437 114.463C170.419 114.454 170.402 114.445 170.385 114.435L170.383 114.434M161.38 114.451L161.358 114.463C161.359 114.463 161.36 114.462 161.361 114.461C161.365 114.459 161.372 114.456 161.38 114.451Z" fill="black"/>
<path fill-rule="evenodd" clip-rule="evenodd" d="M102.264 164.757C102.503 169.001 106.826 171.012 107.097 183.559L112.713 183.843L112.596 139.367L107.337 139.314C107.432 147.592 106.156 156.475 102.264 164.757Z" fill="white"/>
<path fill-rule="evenodd" clip-rule="evenodd" d="M107.074 138L114.738 138.077L114.861 184.991L106.872 184.588L106.848 183.477C106.716 177.36 105.602 173.875 104.52 171.417C104.246 170.792 103.97 170.226 103.701 169.683C103.667 169.614 103.633 169.546 103.599 169.477C103.369 169.012 103.141 168.552 102.939 168.103C102.467 167.06 102.088 165.985 102.017 164.716L102 164.415L102.128 164.143C105.923 156.066 107.182 147.372 107.088 139.22L107.074 138ZM109.486 140.412C109.448 148.373 108.124 156.872 104.431 164.866C104.514 165.609 104.753 166.307 105.122 167.123C105.305 167.53 105.512 167.948 105.745 168.417C105.779 168.486 105.813 168.556 105.849 168.627C106.12 169.176 106.416 169.781 106.713 170.457C107.849 173.04 108.963 176.552 109.207 182.315L112.46 182.479L112.35 140.441L109.486 140.412Z" fill="black"/>
<path fill-rule="evenodd" clip-rule="evenodd" d="M123.076 164.757C122.837 169.001 118.514 171.012 118.243 183.559L112.627 183.843L112.743 139.367L118.003 139.314C117.907 147.592 119.184 156.475 123.076 164.757Z" fill="white"/>
<path fill-rule="evenodd" clip-rule="evenodd" d="M119.787 138L119.773 139.22C119.679 147.372 120.938 156.066 124.733 164.143L124.861 164.415L124.844 164.716C124.773 165.985 124.394 167.06 123.923 168.103C123.72 168.552 123.492 169.012 123.262 169.477C123.228 169.546 123.194 169.614 123.16 169.683C122.892 170.226 122.616 170.792 122.341 171.417C121.259 173.875 120.145 177.36 120.013 183.477L119.989 184.588L112 184.991L112.123 138.077L119.787 138ZM114.511 140.441L114.401 182.479L117.655 182.315C117.898 176.552 119.012 173.04 120.148 170.457C120.446 169.781 120.741 169.176 121.013 168.627C121.048 168.556 121.083 168.486 121.117 168.417C121.349 167.948 121.556 167.53 121.74 167.123C122.108 166.307 122.347 165.609 122.43 164.866C118.737 156.872 117.413 148.373 117.375 140.412L114.511 140.441Z" fill="black"/>
<path fill-rule="evenodd" clip-rule="evenodd" d="M112.662 160.319C112.642 160.34 112.622 160.398 112.591 160.508C111.515 162.398 108.749 164.908 102.546 165.405C108.686 165.695 110.454 166.192 112.591 170.337C112.654 170.557 112.686 170.557 112.71 170.502C112.733 170.557 112.766 170.557 112.828 170.337C114.965 166.192 116.733 165.695 122.873 165.405C116.67 164.908 113.904 162.398 112.828 160.508C112.766 160.288 112.733 160.288 112.71 160.343C112.698 160.315 112.682 160.299 112.662 160.319Z" fill="white"/>
<path fill-rule="evenodd" clip-rule="evenodd" d="M113.308 159.003C113.206 158.996 113.099 159.002 112.988 159.024C112.666 159.089 112.457 159.264 112.351 159.373C112.155 159.575 112.073 159.806 112.058 159.848C112.057 159.85 112.056 159.853 112.056 159.853C112.049 159.872 112.043 159.891 112.036 159.911C111.139 161.397 108.744 163.639 103 164.099L102.5 165.5L103.039 166.481C106.152 166.629 107.889 166.829 109.118 167.394C110.223 167.901 111.032 168.765 112.028 170.675C112.041 170.714 112.056 170.755 112.072 170.795C112.095 170.851 112.17 171.037 112.33 171.211C112.415 171.304 112.599 171.478 112.897 171.563C113.019 171.599 113.141 171.613 113.259 171.61C113.377 171.613 113.499 171.599 113.621 171.563C113.918 171.478 114.103 171.304 114.188 171.211C114.347 171.037 114.422 170.852 114.445 170.796C114.461 170.755 114.476 170.714 114.49 170.675C115.485 168.765 116.295 167.901 117.399 167.394C118.629 166.829 120.366 166.629 123.479 166.481L123.518 164.099C117.766 163.638 115.373 161.392 114.478 159.905C114.468 159.876 114.457 159.847 114.445 159.818C114.423 159.762 114.347 159.576 114.188 159.402C114.103 159.309 113.918 159.135 113.621 159.05C113.515 159.019 113.41 159.004 113.308 159.003ZM112.958 162.605C112.131 163.465 111.006 164.298 109.509 164.976C109.719 165.052 109.923 165.134 110.12 165.225C111.345 165.788 112.258 166.617 113.063 167.754L113.259 167.288L113.454 167.754C114.26 166.617 115.173 165.788 116.397 165.225C116.595 165.134 116.798 165.052 117.009 164.976C115.511 164.298 114.387 163.466 113.56 162.605L113.259 163.325L112.958 162.605Z" fill="black"/>
<path fill-rule="evenodd" clip-rule="evenodd" d="M103.29 60.9435C103.529 56.699 107.852 54.6882 108.123 42.1414L113.739 41.8579L113.622 86.3336L108.363 86.3866C108.458 78.1083 107.182 69.2252 103.29 60.9435Z" fill="white"/>
<path fill-rule="evenodd" clip-rule="evenodd" d="M114.939 40.6018L114.816 87.5154L107.152 87.5926L107.166 86.3728C107.26 78.2203 106.001 69.5263 102.206 61.4501L102.078 61.1773L102.095 60.8765C102.166 59.6072 102.545 58.5326 103.016 57.4892C103.219 57.0406 103.447 56.5805 103.677 56.1156C103.711 56.047 103.745 55.9782 103.779 55.9094C104.047 55.3667 104.323 54.8009 104.598 54.1761C105.679 51.718 106.794 48.2329 106.926 42.1156L106.95 41.0051L114.939 40.6018ZM109.284 43.2781C109.041 49.0407 107.927 52.5523 106.791 55.1354C106.493 55.8114 106.198 56.4167 105.926 56.9652C105.891 57.0366 105.856 57.1067 105.822 57.1757C105.59 57.6447 105.383 58.0628 105.199 58.4695C104.831 59.2859 104.592 59.9833 104.509 60.7265C108.202 68.7204 109.526 77.2192 109.564 85.1805L112.428 85.1516L112.538 43.1138L109.284 43.2781Z" fill="black"/>
<path fill-rule="evenodd" clip-rule="evenodd" d="M124.102 60.9435C123.862 56.699 119.54 54.6882 119.269 42.1414L113.653 41.8579L113.769 86.3336L119.029 86.3866C118.933 78.1083 120.21 69.2252 124.102 60.9435Z" fill="white"/>
<path fill-rule="evenodd" clip-rule="evenodd" d="M112.453 40.6018L120.442 41.0051L120.466 42.1156C120.598 48.2329 121.712 51.718 122.793 54.1761C123.068 54.8009 123.344 55.3667 123.612 55.9094C123.647 55.9782 123.681 56.047 123.715 56.1156C123.945 56.5805 124.173 57.0405 124.375 57.4892C124.846 58.5326 125.225 59.6072 125.297 60.8765L125.314 61.1773L125.186 61.4501C121.39 69.5263 120.132 78.2203 120.226 86.3728L120.24 87.5926L112.575 87.5154L112.453 40.6018ZM114.853 43.1138L114.963 85.1516L117.827 85.1805C117.865 77.2192 119.189 68.7204 122.883 60.7265C122.8 59.9833 122.561 59.2859 122.192 58.4695C122.008 58.0628 121.801 57.6448 121.569 57.1757C121.535 57.1067 121.5 57.0366 121.465 56.9652C121.194 56.4167 120.898 55.8114 120.601 55.1354C119.464 52.5523 118.35 49.0407 118.107 43.2781L114.853 43.1138Z" fill="black"/>
<path fill-rule="evenodd" clip-rule="evenodd" d="M113.609 55.3637C111.472 59.509 109.716 60.0051 103.576 60.2958C109.778 60.7924 112.532 63.3025 113.609 65.1926C113.671 65.4126 113.716 65.4128 113.739 65.3577C113.762 65.4128 113.795 65.4126 113.857 65.1926C114.934 63.3025 117.687 60.7924 123.89 60.2958C117.75 60.0051 115.994 59.509 113.857 55.3637C113.795 55.1437 113.762 55.1435 113.739 55.1985C113.658 55.1045 113.644 55.3194 113.609 55.3637Z" fill="white"/>
<path fill-rule="evenodd" clip-rule="evenodd" d="M114.97 54.91C115.966 56.821 116.773 57.6841 117.874 58.1912C119.1 58.7558 120.834 58.9558 123.947 59.1032L123.986 61.4858C118.236 61.9461 115.853 64.1919 114.958 65.6794C114.948 65.7083 114.937 65.7376 114.925 65.7667L114.925 65.7674C114.902 65.8234 114.827 66.0084 114.668 66.1829C114.583 66.2759 114.398 66.4496 114.101 66.5349C113.977 66.5704 113.854 66.5849 113.735 66.5818C113.631 66.5841 113.524 66.5729 113.417 66.5467C113.149 66.4808 112.967 66.3408 112.865 66.2448C112.679 66.0687 112.589 65.8739 112.557 65.801C112.539 65.7612 112.524 65.7215 112.51 65.6827C111.616 64.1952 109.234 61.9465 103.48 61.4858L103.519 59.1032C106.632 58.9558 108.365 58.7558 109.592 58.1912C110.698 57.6818 111.508 56.8129 112.51 54.8831C112.517 54.8612 112.527 54.8339 112.538 54.8044C112.555 54.7591 112.591 54.6712 112.652 54.5727C112.704 54.4878 112.837 54.2905 113.091 54.1443C113.249 54.0534 113.424 53.9996 113.603 53.985C113.762 53.9633 113.931 53.9723 114.101 54.0212C114.398 54.1065 114.583 54.2802 114.668 54.3732C114.827 54.5477 114.902 54.7327 114.925 54.7887L114.925 54.7894C114.942 54.8298 114.956 54.8704 114.97 54.91ZM112.487 54.96C112.486 54.9616 112.486 54.961 112.487 54.9588ZM113.733 57.5371C112.88 58.8254 111.921 59.7488 110.595 60.3591C110.398 60.4498 110.195 60.5327 109.984 60.6085C111.484 61.2886 112.609 62.1239 113.434 62.9866L113.739 62.2592L114.04 62.978C114.865 62.1184 115.987 61.2864 117.482 60.6085C117.271 60.5327 117.068 60.4498 116.871 60.3591C115.545 59.7488 114.586 58.8254 113.733 57.5371ZM112.636 64.8944C112.637 64.8914 112.638 64.8874 112.64 64.8826L112.636 64.8944Z" fill="black"/>
<path fill-rule="evenodd" clip-rule="evenodd" d="M68.659 141.797C65.8186 144.967 67.4497 149.437 58.7453 158.5L62.5152 162.661L93.9671 131.13L90.2858 127.383C84.4837 133.304 77.2828 138.685 68.659 141.797Z" fill="white"/>
<path fill-rule="evenodd" clip-rule="evenodd" d="M90.2847 125.676L95.6495 131.136L62.4736 164.395L57.1105 158.476L57.8809 157.674C62.1247 153.255 63.8078 150.005 64.786 147.505C65.0347 146.869 65.2406 146.274 65.4357 145.701C65.4604 145.629 65.4851 145.556 65.5097 145.483C65.6765 144.992 65.8416 144.506 66.0165 144.046C66.4232 142.976 66.9171 141.949 67.7665 141.001L67.9678 140.777L68.2518 140.674C76.6617 137.64 83.7158 132.38 89.4297 126.549L90.2847 125.676ZM90.2801 129.083C84.6086 134.686 77.6466 139.762 69.3673 142.81C68.8987 143.394 68.5735 144.055 68.2553 144.893C68.0967 145.31 67.9467 145.751 67.7784 146.247C67.7536 146.32 67.7284 146.394 67.7028 146.469C67.5056 147.048 67.2855 147.685 67.0165 148.372C65.9885 151 64.2866 154.269 60.3727 158.515L62.5571 160.926L92.2849 131.123L90.2801 129.083Z" fill="black"/>
<path fill-rule="evenodd" clip-rule="evenodd" d="M83.3751 156.473C80.1966 159.306 75.7142 157.679 66.6267 166.36L62.4547 162.6L94.0712 131.233L97.8276 134.905C91.8907 140.691 86.4951 147.873 83.3751 156.473Z" fill="white"/>
<path fill-rule="evenodd" clip-rule="evenodd" d="M94.0649 129.556L99.5391 134.906L98.6643 135.758C92.8177 141.457 87.5434 148.492 84.5008 156.879L84.398 157.163L84.1728 157.363C83.2223 158.21 82.1925 158.703 81.1195 159.109C80.6582 159.283 80.1709 159.448 79.6785 159.614C79.6058 159.639 79.5329 159.663 79.46 159.688C78.8855 159.882 78.2892 160.088 77.6519 160.336C75.1444 161.311 71.8854 162.99 67.4548 167.222L66.6505 167.991L60.7154 162.642L94.0649 129.556ZM94.0775 132.911L64.1941 162.559L66.6114 164.737C70.8692 160.834 74.1467 159.136 76.7817 158.111C77.4713 157.843 78.1095 157.623 78.6902 157.427C78.7657 157.401 78.8399 157.376 78.913 157.351C79.4098 157.184 79.8526 157.034 80.2709 156.876C81.1103 156.559 81.774 156.234 82.3594 155.767C85.4157 147.51 90.5053 140.567 96.1231 134.91L94.0775 132.911Z" fill="black"/>
<path fill-rule="evenodd" clip-rule="evenodd" d="M68.4013 142.455C72.537 146.991 73.4382 148.589 72.01 153.028C71.8981 153.227 71.9193 153.251 71.9745 153.228C71.9518 153.283 71.9756 153.304 72.1757 153.193C76.626 151.768 78.2173 152.667 82.7652 156.792C78.7311 152.066 78.5659 148.338 79.1447 146.243C79.2482 146.058 79.2267 146.029 79.1802 146.042C79.2029 145.987 79.1791 145.966 78.979 146.077C76.8775 146.655 73.1396 146.478 68.4013 142.455Z" fill="white"/>
<path fill-rule="evenodd" clip-rule="evenodd" d="M67.5156 143.258L69.1774 141.546C73.5706 145.276 76.8584 145.377 78.5452 144.957C78.5713 144.944 78.5982 144.932 78.6255 144.92L78.6263 144.92C78.6805 144.896 78.8586 144.82 79.0871 144.806C79.2071 144.798 79.4581 144.799 79.7305 144.94C79.8964 145.025 80.0317 145.143 80.1353 145.279C80.4045 145.599 80.4233 145.983 80.4137 146.14C80.4007 146.354 80.3344 146.521 80.3068 146.588C80.2948 146.617 80.2822 146.645 80.2692 146.672C79.8462 148.356 79.9361 151.636 83.6768 156.018L81.9598 157.675C79.6533 155.583 78.286 154.499 77.0182 154.031C75.8807 153.611 74.699 153.65 72.6412 154.298C72.6053 154.316 72.5677 154.334 72.5293 154.35L72.5285 154.35C72.4743 154.374 72.2962 154.45 72.0678 154.465C71.9477 154.472 71.6967 154.471 71.4243 154.331C71.3016 154.267 71.1956 154.186 71.1068 154.094C71.014 154.005 70.9329 153.899 70.8693 153.777C70.728 153.505 70.7272 153.255 70.7349 153.135C70.7494 152.907 70.826 152.73 70.8493 152.676L70.8496 152.675C70.8661 152.637 70.8838 152.599 70.9019 152.563C71.5516 150.512 71.5909 149.33 71.1692 148.192C70.6997 146.924 69.6124 145.558 67.5156 143.258ZM73.1593 146.757C73.2545 146.959 73.3399 147.161 73.4151 147.364C73.8827 148.626 73.9409 149.856 73.7043 151.229L74.1715 151.037L73.9796 151.503C75.3541 151.267 76.5862 151.325 77.8495 151.792C78.0523 151.867 78.2541 151.952 78.4558 152.046C77.8427 150.412 77.6523 148.952 77.7113 147.712L77.1283 147.881L77.2797 147.513C76.0852 147.538 74.6994 147.334 73.1593 146.757ZM79.4934 147.195C79.5011 147.192 79.507 147.191 79.511 147.189C79.5125 147.189 79.5137 147.189 79.5146 147.188L79.4934 147.195Z" fill="black"/>
<path fill-rule="evenodd" clip-rule="evenodd" d="M142.99 69.1129C146.169 66.2802 150.651 67.9069 159.739 59.226L163.911 62.9857L132.294 94.3527L128.538 90.6814C134.475 84.895 139.87 77.7134 142.99 69.1129Z" fill="white"/>
<path fill-rule="evenodd" clip-rule="evenodd" d="M159.715 57.5956L165.65 62.9443L132.3 96.0306L126.826 90.6803L127.701 89.8277C133.548 84.1292 138.822 77.094 141.865 68.7069L141.967 68.4236L142.193 68.2229C143.143 67.3758 144.173 66.8832 145.246 66.4776C145.707 66.3032 146.195 66.1385 146.687 65.9722C146.76 65.9476 146.832 65.923 146.905 65.8983C147.48 65.7038 148.076 65.4984 148.714 65.2504C151.221 64.2748 154.48 62.5963 158.911 58.3639L159.715 57.5956ZM159.754 60.849C155.496 64.7523 152.219 66.4497 149.584 67.4749C148.894 67.7432 148.256 67.9627 147.675 68.1593C147.6 68.1849 147.525 68.21 147.452 68.2347C146.956 68.4026 146.513 68.5522 146.095 68.7103C145.255 69.0276 144.591 69.352 144.006 69.8193C140.95 78.0763 135.86 85.0195 130.242 90.6758L132.288 92.6751L162.171 63.0275L159.754 60.849Z" fill="black"/>
<path fill-rule="evenodd" clip-rule="evenodd" d="M157.706 83.7893C160.547 80.6194 158.916 76.1491 167.62 67.0861L163.85 62.9254L132.398 94.4566L136.08 98.2029C141.882 92.282 149.083 86.901 157.706 83.7893Z" fill="white"/>
<path fill-rule="evenodd" clip-rule="evenodd" d="M163.892 61.1907L169.255 67.1098L168.485 67.912C164.241 72.3306 162.558 75.5808 161.58 78.0815C161.331 78.7171 161.125 79.3119 160.93 79.8848C160.905 79.9575 160.88 80.0301 160.856 80.1026C160.689 80.5937 160.524 81.0797 160.349 81.5398C159.942 82.6099 159.448 83.6369 158.599 84.5848L158.398 84.8095L158.114 84.912C149.704 87.9464 142.65 93.2064 136.936 99.0373L136.081 99.9097L130.716 94.4503L163.892 61.1907ZM134.081 94.4628L136.085 96.503C141.757 90.9003 148.719 85.8244 156.998 82.7763C157.467 82.1925 157.792 81.5306 158.11 80.6935C158.269 80.2763 158.419 79.8347 158.587 79.3393C158.612 79.2664 158.637 79.1924 158.663 79.1171C158.86 78.538 159.08 77.9014 159.349 77.2137C160.377 74.5858 162.079 71.3171 165.993 67.0708L163.808 64.6601L134.081 94.4628Z" fill="black"/>
<path fill-rule="evenodd" clip-rule="evenodd" d="M143.648 68.8503C147.682 73.5759 147.86 77.3037 147.281 79.3995C147.169 79.5991 147.19 79.6228 147.245 79.6001C147.222 79.6553 147.246 79.6764 147.446 79.5647C149.548 78.9875 153.286 79.1641 158.024 83.1873C153.888 78.6516 152.987 77.0528 154.415 72.6145C154.527 72.415 154.506 72.3913 154.451 72.4139C154.463 72.3685 154.433 72.347 154.25 72.4493C149.799 73.8737 148.196 72.9749 143.648 68.8503Z" fill="white"/>
<path fill-rule="evenodd" clip-rule="evenodd" d="M142.737 69.6243L144.454 67.967C146.76 70.0581 148.13 71.1425 149.401 71.6107C150.542 72.0314 151.728 71.992 153.787 71.3432C153.825 71.3248 153.864 71.3068 153.905 71.2901C153.973 71.2621 154.139 71.1972 154.352 71.1844C154.505 71.1752 154.874 71.192 155.192 71.4433C155.338 71.5487 155.465 71.6898 155.556 71.8651C155.697 72.1367 155.698 72.387 155.691 72.5068C155.676 72.7347 155.599 72.9123 155.576 72.9664L155.576 72.9671C155.559 73.0055 155.542 73.0429 155.524 73.0788C154.874 75.1306 154.835 76.3125 155.256 77.4505C155.726 78.7177 156.813 80.0845 158.91 82.384L157.248 84.0964C152.855 80.3663 149.567 80.2655 147.88 80.6854C147.854 80.698 147.827 80.7104 147.8 80.7221L147.799 80.7224C147.745 80.7456 147.567 80.822 147.338 80.8365C147.218 80.8441 146.967 80.8433 146.695 80.7024C146.572 80.639 146.466 80.5581 146.377 80.4655C146.285 80.377 146.204 80.2713 146.14 80.1489C145.999 79.8773 145.998 79.627 146.005 79.5072C146.02 79.2793 146.097 79.1017 146.12 79.0476L146.12 79.0469C146.132 79.0196 146.144 78.9929 146.157 78.9668C146.578 77.2845 146.477 74.0056 142.737 69.6243ZM147.962 73.5954C148.54 75.1314 148.746 76.5134 148.72 77.7048L149.442 77.4089L149.146 78.1289C150.34 78.1037 151.726 78.3086 153.266 78.8854C153.171 78.6834 153.086 78.4813 153.01 78.2782C152.543 77.0164 152.485 75.7858 152.721 74.4136L152.65 74.4426L152.749 74.0827C151.25 74.3812 149.928 74.3509 148.571 73.8506C148.367 73.7755 148.164 73.6904 147.962 73.5954ZM153.292 72.113C153.294 72.1081 153.295 72.104 153.296 72.1009L153.292 72.113Z" fill="black"/>
<path fill-rule="evenodd" clip-rule="evenodd" d="M142.265 157.197C145.443 160.029 149.926 158.403 159.013 167.084L163.185 163.324L131.569 131.957L127.812 135.628C133.749 141.415 139.145 148.596 142.265 157.197Z" fill="white"/>
<path fill-rule="evenodd" clip-rule="evenodd" d="M131.575 130.279L164.925 163.365L158.99 168.714L158.185 167.946C153.755 163.713 150.496 162.035 147.988 161.059C147.351 160.811 146.755 160.606 146.18 160.411C146.107 160.387 146.034 160.362 145.962 160.337C145.469 160.171 144.982 160.006 144.521 159.832C143.448 159.426 142.418 158.934 141.467 158.087L141.242 157.886L141.139 157.603C138.097 149.216 132.822 142.18 126.976 136.482L126.101 135.629L131.575 130.279ZM129.517 135.634C135.135 141.29 140.224 148.233 143.281 156.49C143.866 156.958 144.53 157.282 145.369 157.599C145.787 157.757 146.23 157.907 146.727 158.075C146.8 158.1 146.874 158.125 146.95 158.15C147.531 158.347 148.169 158.566 148.858 158.835C151.493 159.86 154.771 161.557 159.029 165.461L161.446 163.282L131.563 133.635L129.517 135.634Z" fill="black"/>
<path fill-rule="evenodd" clip-rule="evenodd" d="M156.981 142.52C159.821 145.69 158.19 150.16 166.895 159.223L163.125 163.384L131.673 131.853L135.354 128.107C141.156 134.028 148.357 139.409 156.981 142.52Z" fill="white"/>
<path fill-rule="evenodd" clip-rule="evenodd" d="M135.355 126.4L136.21 127.272C141.924 133.103 148.978 138.363 157.388 141.398L157.672 141.5L157.874 141.725C158.723 142.673 159.217 143.7 159.624 144.77C159.798 145.23 159.964 145.716 160.13 146.207C160.155 146.279 160.18 146.352 160.204 146.425C160.399 146.998 160.605 147.592 160.854 148.228C161.832 150.729 163.515 153.979 167.759 158.398L168.53 159.2L163.166 165.119L129.991 131.859L135.355 126.4ZM133.355 131.847L163.083 161.649L165.267 159.239C161.353 154.992 159.652 151.724 158.624 149.096C158.355 148.408 158.134 147.772 157.937 147.192C157.912 147.117 157.886 147.043 157.862 146.97C157.693 146.475 157.543 146.033 157.385 145.616C157.067 144.779 156.741 144.117 156.273 143.533C147.993 140.485 141.031 135.409 135.36 129.807L133.355 131.847Z" fill="black"/>
<path fill-rule="evenodd" clip-rule="evenodd" d="M157.302 143.127C152.564 147.151 148.826 147.315 146.725 146.738C146.54 146.635 146.51 146.656 146.524 146.703C146.468 146.68 146.435 146.716 146.547 146.915C147.126 149.011 146.961 152.727 142.927 157.453C147.475 153.328 149.066 152.441 153.516 153.865C153.716 153.977 153.752 153.944 153.729 153.889C153.776 153.902 153.797 153.873 153.694 153.688C152.265 149.25 153.167 147.663 157.302 143.127Z" fill="white"/>
<path fill-rule="evenodd" clip-rule="evenodd" d="M147.155 145.617C148.844 146.039 152.133 145.949 156.526 142.218L158.188 143.931C156.091 146.231 155.004 147.595 154.534 148.859C154.113 149.994 154.152 151.173 154.803 153.227C154.821 153.264 154.839 153.303 154.856 153.343C154.883 153.41 154.95 153.577 154.963 153.791C154.972 153.949 154.953 154.338 154.677 154.661C154.585 154.78 154.47 154.883 154.335 154.962C154.108 155.096 153.89 155.128 153.751 155.133C153.495 155.142 153.294 155.071 153.213 155.041C153.157 155.019 153.104 154.996 153.055 154.972C150.993 154.322 149.81 154.28 148.672 154.699C147.405 155.164 146.038 156.245 143.732 158.336L142.015 156.679C145.758 152.294 145.846 149.025 145.422 147.343C145.404 147.303 145.386 147.261 145.369 147.218C145.339 147.137 145.267 146.936 145.276 146.681C145.282 146.542 145.313 146.325 145.447 146.099C145.527 145.964 145.63 145.849 145.75 145.757C146.073 145.482 146.464 145.463 146.622 145.473C146.837 145.486 147.004 145.552 147.071 145.579C147.1 145.591 147.128 145.604 147.155 145.617ZM147.988 148.594L148.367 148.749L148.198 148.168C149.442 148.227 150.906 148.037 152.544 147.425C152.449 147.626 152.364 147.828 152.289 148.03C151.791 149.372 151.757 150.678 152.049 152.158L151.677 152.05L151.73 152.178C150.349 151.938 149.113 151.992 147.844 152.458C147.641 152.533 147.438 152.617 147.236 152.712C147.815 151.172 148.017 149.787 147.988 148.594ZM154.042 152.736L154.064 152.743C154.063 152.742 154.061 152.742 154.06 152.742C154.056 152.74 154.05 152.739 154.042 152.736ZM147.679 146.39C147.677 146.383 147.675 146.377 147.674 146.373C147.674 146.371 147.673 146.37 147.673 146.369L147.679 146.39Z" fill="black"/>
<path fill-rule="evenodd" clip-rule="evenodd" d="M69.3847 83.0658C66.5443 79.8958 68.1753 75.4255 59.4709 66.3626L63.2409 62.2018L94.6927 93.733L91.0114 97.4793C85.2094 91.5585 78.0084 86.1774 69.3847 83.0658Z" fill="white"/>
<path fill-rule="evenodd" clip-rule="evenodd" d="M63.199 60.4672L96.3748 93.7268L91.0101 99.1862L90.1551 98.3138C84.4412 92.4829 77.3871 87.2229 68.9772 84.1885L68.6932 84.086L68.4919 83.8613C67.6425 82.9134 67.1486 81.8864 66.7419 80.8163C66.567 80.3562 66.4019 79.8702 66.2351 79.3791C66.2105 79.3066 66.1858 79.234 66.1611 79.1613C65.966 78.5883 65.76 77.9936 65.5114 77.358C64.5332 74.8573 62.8501 71.6071 58.6063 67.1884L57.8359 66.3863L63.199 60.4672ZM63.2825 63.9365L61.0981 66.3473C65.012 70.5936 66.7139 73.8623 67.7419 76.4902C68.0109 77.1779 68.231 77.8145 68.4282 78.3936C68.4538 78.4688 68.479 78.5429 68.5037 78.6157C68.6721 79.1112 68.8221 79.5528 68.9807 79.9699C69.2988 80.8071 69.6241 81.469 70.0927 82.0528C78.372 85.1009 85.334 90.1768 91.0055 95.7794L93.0102 93.7393L63.2825 63.9365Z" fill="black"/>
<path fill-rule="evenodd" clip-rule="evenodd" d="M84.1006 68.3895C80.9221 65.5568 76.4397 67.1834 67.3522 58.5025L63.1802 62.2623L94.7967 93.6292L98.5531 89.9579C92.6163 84.1715 87.2206 76.9899 84.1006 68.3895Z" fill="white"/>
<path fill-rule="evenodd" clip-rule="evenodd" d="M67.376 56.8719L68.1803 57.6403C72.6109 61.8727 75.8699 63.5512 78.3774 64.5268C79.0147 64.7747 79.6111 64.9802 80.1856 65.1747C80.2584 65.1994 80.3313 65.224 80.404 65.2486C80.8964 65.4149 81.3837 65.5795 81.845 65.7539C82.918 66.1595 83.9478 66.6521 84.8983 67.4992L85.1235 67.7L85.2263 67.9833C88.269 76.3704 93.5432 83.4055 99.3898 89.104L100.265 89.9567L94.7904 95.307L61.4409 62.2206L67.376 56.8719ZM64.9196 62.3039L94.803 91.9514L96.8487 89.9521C91.2309 84.2959 86.1412 77.3527 83.0849 69.0957C82.4995 68.6284 81.8358 68.304 80.9964 67.9867C80.5781 67.8286 80.1353 67.6789 79.6385 67.511C79.5654 67.4863 79.4912 67.4612 79.4157 67.4357C78.8351 67.239 78.1968 67.0196 77.5072 66.7513C74.8722 65.7261 71.5947 64.0287 67.3369 60.1254L64.9196 62.3039Z" fill="black"/>
<path fill-rule="evenodd" clip-rule="evenodd" d="M83.4987 68.0716C78.9508 72.1961 77.3476 73.0949 72.8974 71.6706C72.6973 71.5589 72.6735 71.5801 72.6962 71.6352C72.6409 71.6125 72.6198 71.6363 72.7317 71.8358C74.1599 76.2741 73.2587 77.8729 69.123 82.4086C73.8613 78.3853 77.5992 78.2087 79.7007 78.786C79.9008 78.8976 79.9246 78.8765 79.9019 78.8214C79.9571 78.844 79.9783 78.8203 79.8664 78.6208C79.2876 76.525 79.4646 72.7971 83.4987 68.0716Z" fill="white"/>
<path fill-rule="evenodd" clip-rule="evenodd" d="M77.7466 70.8321C79.0171 70.3638 80.3876 69.2795 82.6934 67.1884L84.4104 68.8457C80.6702 73.2269 80.5691 76.5059 80.9902 78.1881C81.0029 78.2142 81.0152 78.241 81.0269 78.2682L81.0273 78.269C81.0506 78.3231 81.1271 78.5007 81.1417 78.7286C81.1493 78.8484 81.1485 79.0987 81.0072 79.3703C80.9436 79.4927 80.8625 79.5983 80.7697 79.6869C80.6809 79.7795 80.5749 79.8604 80.4523 79.9238C80.1799 80.0647 79.9289 80.0655 79.8088 80.0578C79.5803 80.0433 79.4022 79.967 79.348 79.9438L79.3472 79.9434C79.3199 79.9317 79.2931 79.9194 79.2669 79.9068C77.5801 79.4869 74.2923 79.5876 69.8992 83.3178L68.2374 81.6054C70.3341 79.3058 71.4214 77.9391 71.891 76.6719C72.3126 75.5339 72.2733 74.352 71.6236 72.3001C71.6056 72.2643 71.5878 72.2268 71.5713 72.1885L71.571 72.1877C71.5477 72.1336 71.4712 71.956 71.4566 71.7282C71.449 71.6084 71.4497 71.3581 71.591 71.0864C71.6547 70.9641 71.7358 70.8584 71.8286 70.7699C71.9174 70.6773 72.0233 70.5964 72.146 70.533C72.4184 70.3921 72.6694 70.3913 72.7894 70.3989C73.0179 70.4134 73.196 70.4898 73.2503 70.513L73.2511 70.5133C73.2895 70.5298 73.327 70.5475 73.363 70.5655C75.4204 71.2134 76.6055 71.2526 77.7466 70.8321ZM74.4261 73.6349C74.6626 75.0072 74.6044 76.2378 74.1369 77.4996C74.0616 77.7027 73.9763 77.9048 73.881 78.1068C75.4211 77.5299 76.8069 77.3251 78.0015 77.3502L77.7049 76.6303L78.4267 76.9261C78.4015 75.7348 78.6069 74.3527 79.1853 72.8168C78.9828 72.9118 78.7801 72.9969 78.5765 73.0719C77.3113 73.5382 76.0773 73.5963 74.7014 73.3604L74.8934 73.8264L74.4261 73.6349Z" fill="black"/>
<path fill-rule="evenodd" clip-rule="evenodd" d="M121.229 8.02403C121.229 9.07776 121.021 10.1212 120.616 11.0947C120.212 12.0682 119.619 12.9528 118.872 13.6979C118.125 14.443 117.238 15.034 116.262 15.4373C115.286 15.8405 114.24 16.0481 113.183 16.0481C112.127 16.0481 111.08 15.8405 110.104 15.4373C109.128 15.034 108.241 14.443 107.494 13.6979C106.747 12.9528 106.154 12.0682 105.75 11.0947C105.346 10.1212 105.137 9.07776 105.137 8.02403C105.137 6.9703 105.346 5.92688 105.75 4.95337C106.154 3.97985 106.747 3.09528 107.494 2.35018C108.241 1.60508 109.128 1.01404 110.104 0.610793C111.08 0.207548 112.127 0 113.183 0C114.24 0 115.286 0.207548 116.262 0.610793C117.238 1.01404 118.125 1.60508 118.872 2.35018C119.619 3.09528 120.212 3.97985 120.616 4.95337C121.021 5.92688 121.229 6.9703 121.229 8.02403V8.02403Z" fill="white"/>
<path fill-rule="evenodd" clip-rule="evenodd" d="M105.119 20.3289C106.665 17.4707 109.679 15.5303 113.17 15.5303C116.657 15.5303 119.699 17.4666 121.248 20.329L122.027 21.7697L120.398 21.9684C116.971 22.3863 114.317 25.2854 114.317 28.8067C114.317 29.9924 114.627 31.1033 115.164 32.0878L115.947 33.5261L114.319 33.7298C113.923 33.7794 113.535 33.7915 113.17 33.7915C112.805 33.7915 112.417 33.7794 112.021 33.7298L110.392 33.5261L111.176 32.0878C111.713 31.1033 112.023 29.9924 112.023 28.8067C112.023 25.2927 109.38 22.3959 105.965 21.968L104.342 21.7646L105.119 20.3289ZM107.959 20.1354C110.202 20.8699 112.065 22.4409 113.17 24.4805C114.279 22.4358 116.15 20.863 118.401 20.1319C117.13 18.6793 115.256 17.7647 113.17 17.7647C111.086 17.7647 109.226 18.6791 107.959 20.1354Z" fill="black"/>
<path fill-rule="evenodd" clip-rule="evenodd" d="M113.17 201.4C112.065 203.439 110.202 205.01 107.959 205.745C109.226 207.201 111.086 208.116 113.17 208.116C115.256 208.116 117.13 207.201 118.401 205.748C116.15 205.017 114.279 203.445 113.17 201.4ZM112.021 192.151C112.417 192.101 112.805 192.089 113.17 192.089C113.535 192.089 113.923 192.101 114.319 192.151L115.947 192.354L115.164 193.793C114.627 194.777 114.317 195.888 114.317 197.074C114.317 200.595 116.971 203.494 120.398 203.912L122.027 204.111L121.248 205.551C119.699 208.414 116.657 210.35 113.17 210.35C109.679 210.35 106.665 208.41 105.119 205.551L104.342 204.116L105.965 203.912C109.38 203.484 112.023 200.588 112.023 197.074C112.023 195.888 111.713 194.777 111.176 193.793L110.392 192.354L112.021 192.151Z" fill="black"/>
<path fill-rule="evenodd" clip-rule="evenodd" d="M8.07307 104.826C9.12965 104.826 10.1759 105.033 11.152 105.437C12.1282 105.84 13.0151 106.431 13.7623 107.176C14.5094 107.921 15.102 108.806 15.5064 109.779C15.9107 110.753 16.1188 111.796 16.1188 112.85C16.1188 113.903 15.9107 114.947 15.5064 115.92C15.102 116.894 14.5094 117.778 13.7623 118.524C13.0151 119.269 12.1282 119.86 11.152 120.263C10.1759 120.666 9.12965 120.874 8.07307 120.874C7.01649 120.874 5.97026 120.666 4.99411 120.263C4.01795 119.86 3.131 119.269 2.38388 118.524C1.63677 117.778 1.04412 116.894 0.639789 115.92C0.235453 114.947 0.0273438 113.903 0.0273438 112.85C0.0273438 111.796 0.235453 110.753 0.639789 109.779C1.04412 108.806 1.63677 107.921 2.38388 107.176C3.131 106.431 4.01795 105.84 4.99411 105.437C5.97026 105.033 7.01649 104.826 8.07307 104.826V104.826Z" fill="white"/>
<path fill-rule="evenodd" clip-rule="evenodd" d="M0 112.864C0 115.917 1.70416 118.554 4.2234 119.91C4.72154 115.956 8.09328 112.89 12.1921 112.89C13.58 112.89 14.8767 113.252 16.0171 113.87C16.0586 113.54 16.0702 113.205 16.0702 112.864C16.0702 112.523 16.0586 112.187 16.0171 111.857C14.8767 112.475 13.58 112.837 12.1921 112.837C8.08419 112.837 4.70978 109.758 4.2234 105.791C1.70384 107.147 0 109.81 0 112.864Z" fill="white"/>
<path fill-rule="evenodd" clip-rule="evenodd" d="M21.8559 104.03L22.0552 105.655C22.4742 109.073 25.3812 111.72 28.9119 111.72C30.1008 111.72 31.2148 111.411 32.2019 110.876L33.6441 110.094L33.8484 111.718C33.8981 112.113 33.9102 112.5 33.9102 112.864C33.9102 113.228 33.8981 113.615 33.8484 114.009L33.6441 115.634L32.2019 114.852C31.2148 114.317 30.1008 114.007 28.9119 114.007C25.3884 114.007 22.4838 116.644 22.0547 120.05L21.8508 121.668L20.4112 120.893C17.5453 119.351 15.5997 116.345 15.5997 112.864C15.5997 109.386 17.5412 106.352 20.4113 104.808L21.8559 104.03ZM20.2136 107.647C18.7571 108.915 17.84 110.784 17.84 112.864C17.84 114.943 18.757 116.798 20.2172 118.06C20.9537 115.824 22.5289 113.966 24.574 112.864C22.5238 111.757 20.9467 109.892 20.2136 107.647Z" fill="black"/>
<path fill-rule="evenodd" clip-rule="evenodd" d="M218.292 104.826C217.236 104.826 216.19 105.033 215.214 105.437C214.237 105.84 213.35 106.431 212.603 107.176C211.856 107.921 211.264 108.806 210.859 109.779C210.455 110.753 210.247 111.796 210.247 112.85C210.247 113.903 210.455 114.947 210.859 115.92C211.264 116.894 211.856 117.778 212.603 118.524C213.35 119.269 214.237 119.86 215.214 120.263C216.19 120.666 217.236 120.874 218.292 120.874C219.349 120.874 220.395 120.666 221.371 120.263C222.348 119.86 223.235 119.269 223.982 118.524C224.729 117.778 225.321 116.894 225.726 115.92C226.13 114.947 226.338 113.903 226.338 112.85C226.338 111.796 226.13 110.753 225.726 109.779C225.321 108.806 224.729 107.921 223.982 107.176C223.235 106.431 222.348 105.84 221.371 105.437C220.395 105.033 219.349 104.826 218.292 104.826V104.826Z" fill="white"/>
<path fill-rule="evenodd" clip-rule="evenodd" d="M226.366 112.864C226.366 115.917 224.662 118.554 222.143 119.91C221.645 115.956 218.273 112.89 214.174 112.89C212.786 112.89 211.49 113.252 210.349 113.87C210.308 113.54 210.296 113.205 210.296 112.864C210.296 112.523 210.308 112.187 210.349 111.857C211.49 112.475 212.786 112.837 214.174 112.837C218.282 112.837 221.657 109.758 222.143 105.791C224.662 107.147 226.366 109.81 226.366 112.864Z" fill="white"/>
<path fill-rule="evenodd" clip-rule="evenodd" d="M204.69 103.81L206.135 104.587C209.005 106.131 210.946 109.166 210.946 112.643C210.946 116.125 209.001 119.13 206.135 120.673L204.695 121.448L204.491 119.829C204.062 116.423 201.157 113.787 197.634 113.787C196.445 113.787 195.331 114.096 194.344 114.631L192.902 115.413L192.698 113.789C192.648 113.394 192.636 113.007 192.636 112.643C192.636 112.279 192.648 111.892 192.698 111.497L192.902 109.873L194.344 110.655C195.331 111.19 196.445 111.499 197.634 111.499C201.165 111.499 204.072 108.852 204.491 105.435L204.69 103.81ZM206.332 107.426C205.599 109.671 204.022 111.537 201.972 112.643C204.017 113.745 205.592 115.603 206.329 117.84C207.789 116.577 208.706 114.722 208.706 112.643C208.706 110.563 207.789 108.694 206.332 107.426Z" fill="black"/>
<path fill-rule="evenodd" clip-rule="evenodd" d="M44.5484 33.0528C45.2955 33.7979 45.8882 34.6825 46.2925 35.656C46.6968 36.6295 46.9049 37.673 46.9049 38.7267C46.9049 39.7804 46.6968 40.8238 46.2925 41.7973C45.8882 42.7709 45.2955 43.6554 44.5484 44.4005C43.8013 45.1456 42.9143 45.7367 41.9382 46.1399C40.962 46.5432 39.9158 46.7507 38.8592 46.7507C37.8026 46.7507 36.7564 46.5432 35.7803 46.1399C34.8041 45.7367 33.9171 45.1456 33.17 44.4005C32.4229 43.6554 31.8303 42.7709 31.4259 41.7973C31.0216 40.8238 30.8135 39.7804 30.8135 38.7267C30.8135 37.673 31.0216 36.6295 31.4259 35.656C31.8303 34.6825 32.4229 33.7979 33.17 33.0528C33.9171 32.3077 34.8041 31.7167 35.7802 31.3134C36.7564 30.9102 37.8026 30.7027 38.8592 30.7027C39.9158 30.7027 40.962 30.9102 41.9382 31.3135C42.9143 31.7167 43.8013 32.3077 44.5484 33.0528V33.0528Z" fill="white"/>
<path fill-rule="evenodd" clip-rule="evenodd" d="M33.1412 33.0432C30.9762 35.2023 30.3114 38.2688 31.1314 41.0042C34.2873 38.5594 38.8452 38.7693 41.7435 41.6598C42.7249 42.6385 43.3852 43.8089 43.7532 45.0502C44.0165 44.8461 44.2626 44.6171 44.5045 44.3759C44.7464 44.1346 44.976 43.8892 45.1807 43.6266C43.936 43.2596 42.7624 42.601 41.781 41.6223C38.8763 38.7254 38.6737 34.1682 41.1424 31.0202C38.3995 30.2021 35.3063 30.8839 33.1412 33.0432Z" fill="white"/>
<path fill-rule="evenodd" clip-rule="evenodd" d="M43.8721 43.742C46.3378 41.2831 49.8619 40.5067 52.9865 41.4386L54.5591 41.9077L53.5479 43.1972C51.4211 45.9092 51.5996 49.8312 54.0962 52.3212C54.9369 53.1596 55.9439 53.7264 57.0213 54.0441L58.5955 54.5083L57.5882 55.8009C57.3434 56.1152 57.0776 56.3973 56.8197 56.6546C56.5617 56.9119 56.2787 57.1769 55.9636 57.4211L54.6675 58.4256L54.2021 56.8558C53.8835 55.7812 53.3151 54.7769 52.4745 53.9385C49.983 51.4537 46.06 51.2694 43.3417 53.3752L42.0498 54.376L41.5813 52.813C40.6484 49.7012 41.4037 46.2038 43.8721 43.742ZM50.8338 43.3067C48.9047 43.1763 46.931 43.8512 45.4563 45.3219C43.9825 46.7918 43.3156 48.7502 43.4527 50.6729C45.5592 49.6109 47.9903 49.408 50.2181 50.0706C49.5527 47.8426 49.7603 45.4112 50.8338 43.3067Z" fill="black"/>
<path fill-rule="evenodd" clip-rule="evenodd" d="M193.196 181.299C192.449 180.554 191.562 179.963 190.586 179.56C189.61 179.157 188.563 178.949 187.507 178.949C186.45 178.949 185.404 179.157 184.428 179.56C183.452 179.963 182.565 180.554 181.818 181.299C181.07 182.044 180.478 182.929 180.073 183.903C179.669 184.876 179.461 185.92 179.461 186.973C179.461 188.027 179.669 189.07 180.073 190.044C180.478 191.017 181.07 191.902 181.818 192.647C182.565 193.392 183.452 193.983 184.428 194.386C185.404 194.79 186.45 194.997 187.507 194.997C188.563 194.997 189.61 194.79 190.586 194.386C191.562 193.983 192.449 193.392 193.196 192.647C193.943 191.902 194.536 191.017 194.94 190.044C195.344 189.07 195.553 188.027 195.553 186.973C195.553 185.92 195.344 184.876 194.94 183.903C194.536 182.929 193.943 182.044 193.196 181.299V181.299Z" fill="white"/>
<path fill-rule="evenodd" clip-rule="evenodd" d="M170.968 167.626L171.434 169.196C171.752 170.27 172.32 171.275 173.161 172.113C175.658 174.603 179.59 174.781 182.31 172.66L183.603 171.651L184.073 173.22C185.008 176.336 184.229 179.851 181.763 182.31C179.295 184.771 175.788 185.525 172.668 184.594L171.101 184.127L172.104 182.839C174.216 180.128 174.031 176.215 171.539 173.73L171.577 173.693L171.539 173.73C170.699 172.892 169.692 172.325 168.614 172.007L167.04 171.543L168.047 170.251C168.292 169.936 168.558 169.654 168.816 169.397C169.074 169.14 169.357 168.875 169.672 168.63L170.968 167.626ZM175.418 175.981C176.082 178.202 175.879 180.627 174.814 182.728C176.742 182.865 178.705 182.199 180.179 180.73C181.654 179.259 182.331 177.291 182.2 175.367C180.09 176.437 177.652 176.644 175.418 175.981Z" fill="black"/>
<path fill-rule="evenodd" clip-rule="evenodd" d="M33.1694 181.299C33.9166 180.554 34.8035 179.963 35.7797 179.56C36.7558 179.157 37.8021 178.949 38.8586 178.949C39.9152 178.949 40.9615 179.157 41.9376 179.56C42.9138 179.963 43.8007 180.554 44.5478 181.299C45.2949 182.044 45.8876 182.929 46.2919 183.903C46.6963 184.876 46.9044 185.92 46.9044 186.973C46.9044 188.027 46.6963 189.07 46.2919 190.044C45.8876 191.017 45.2949 191.902 44.5478 192.647C43.8007 193.392 42.9138 193.983 41.9376 194.386C40.9615 194.79 39.9152 194.997 38.8586 194.997C37.8021 194.997 36.7558 194.79 35.7797 194.386C34.8035 193.983 33.9166 193.392 33.1695 192.647C32.4223 191.902 31.8297 191.017 31.4254 190.044C31.021 189.07 30.8129 188.027 30.8129 186.973C30.8129 185.92 31.021 184.876 31.4254 183.903C31.8297 182.929 32.4223 182.044 33.1694 181.299V181.299Z" fill="white"/>
<path fill-rule="evenodd" clip-rule="evenodd" d="M33.1599 192.677C35.3249 194.836 38.3997 195.499 41.1424 194.681C38.691 191.534 38.9015 186.988 41.7998 184.097C42.7812 183.119 43.9547 182.46 45.1994 182.093C44.9948 181.831 44.7652 181.585 44.5233 181.344C44.2814 181.103 44.0353 180.874 43.772 180.67C43.4039 181.911 42.7436 183.081 41.7622 184.06C38.8575 186.957 34.288 187.159 31.1314 184.697C30.3111 187.432 30.9948 190.517 33.1599 192.677Z" fill="white"/>
<path fill-rule="evenodd" clip-rule="evenodd" d="M54.6829 166.562L55.9791 167.567C56.2942 167.811 56.5771 168.076 56.8351 168.333C57.0931 168.591 57.3588 168.873 57.6037 169.187L58.6109 170.48L57.0368 170.944C55.9594 171.262 54.9523 171.828 54.1117 172.667C51.6202 175.152 51.4353 179.064 53.5468 181.775L54.5503 183.063L52.9831 183.531C49.8629 184.461 46.356 183.708 43.8876 181.246C41.422 178.787 40.6435 175.272 41.578 172.156L42.0483 170.588L43.3413 171.596C46.0607 173.717 49.9933 173.539 52.4899 171.049C53.3306 170.211 53.8989 169.207 54.2175 168.132L54.6829 166.562ZM50.2333 174.917C49.5689 177.139 49.7723 179.563 50.8372 181.664C48.9093 181.801 46.9456 181.136 45.4718 179.666C43.9971 178.195 43.3203 176.227 43.4511 174.303C45.5613 175.374 47.9993 175.581 50.2333 174.917Z" fill="black"/>
<path fill-rule="evenodd" clip-rule="evenodd" d="M181.817 33.0528C181.07 33.7979 180.477 34.6825 180.073 35.656C179.669 36.6295 179.461 37.673 179.461 38.7267C179.461 39.7804 179.669 40.8238 180.073 41.7973C180.477 42.7709 181.07 43.6554 181.817 44.4005C182.564 45.1456 183.451 45.7367 184.427 46.1399C185.404 46.5432 186.45 46.7507 187.506 46.7507C188.563 46.7507 189.609 46.5432 190.585 46.1399C191.561 45.7367 192.448 45.1456 193.196 44.4005C193.943 43.6554 194.535 42.7709 194.94 41.7973C195.344 40.8238 195.552 39.7804 195.552 38.7267C195.552 37.673 195.344 36.6295 194.94 35.656C194.535 34.6825 193.943 33.7979 193.196 33.0528C192.448 32.3077 191.561 31.7167 190.585 31.3135C189.609 30.9102 188.563 30.7027 187.506 30.7027C186.45 30.7027 185.404 30.9102 184.427 31.3135C183.451 31.7167 182.564 32.3077 181.817 33.0528V33.0528Z" fill="white"/>
<path fill-rule="evenodd" clip-rule="evenodd" d="M175.868 44.3704C176.942 46.4748 177.149 48.9063 176.484 51.1342C178.712 50.4717 181.143 50.6746 183.249 51.7365C183.386 49.8138 182.72 47.8555 181.246 46.3856L182.038 45.5956L181.246 46.3856C179.771 44.9149 177.797 44.24 175.868 44.3704ZM174.19 54.9647L174.228 55.0022C176.719 52.5174 180.642 52.333 183.36 54.4389L184.652 55.4397L185.121 53.8766C186.054 50.7648 185.298 47.2675 182.83 44.8057C180.364 42.3467 176.84 41.5704 173.716 42.5023L172.143 42.9713L173.154 44.2609C175.281 46.9729 175.102 50.8949 172.606 53.3848C171.765 54.2232 170.758 54.79 169.681 55.1077L168.107 55.5719L169.114 56.8646C169.359 57.1788 169.624 57.461 169.882 57.7183C170.14 57.9755 170.423 58.2406 170.738 58.4848L172.035 59.4893L172.5 57.9194C172.819 56.8449 173.387 55.8406 174.228 55.0022L174.19 54.9647Z" fill="black"/>
<path fill-rule="evenodd" clip-rule="evenodd" d="M113.169 20.8928C62.2717 20.8928 20.9765 62.0766 20.9765 112.837C20.9765 163.597 62.2717 204.808 113.169 204.808C164.067 204.808 205.389 163.597 205.389 112.837C205.389 62.0766 164.067 20.8928 113.169 20.8928ZM113.169 42.455C152.159 42.455 183.821 74.0059 183.821 112.89C183.821 151.774 152.159 183.351 113.169 183.351C74.1802 183.351 42.544 151.774 42.544 112.89C42.544 74.0059 74.1802 42.455 113.169 42.455Z" fill="white"/>
<path fill-rule="evenodd" clip-rule="evenodd" d="M19.7794 112.837C19.7794 61.4172 61.6106 19.6988 113.169 19.6988C164.728 19.6988 206.586 61.4167 206.586 112.837C206.586 164.257 164.728 206.002 113.169 206.002C61.6101 206.002 19.7794 164.256 19.7794 112.837ZM113.169 22.0866C62.9329 22.0866 22.1736 62.7359 22.1736 112.837C22.1736 162.938 62.9333 203.614 113.169 203.614C163.406 203.614 204.192 162.938 204.192 112.837C204.192 62.7363 163.406 22.0866 113.169 22.0866ZM113.169 43.6488C74.8413 43.6488 43.7411 74.6652 43.7411 112.89C43.7411 151.115 74.8419 182.158 113.169 182.158C151.498 182.158 182.624 151.115 182.624 112.89C182.624 74.6658 151.498 43.6488 113.169 43.6488ZM41.3469 112.89C41.3469 73.3465 73.519 41.2611 113.169 41.2611C152.819 41.2611 185.019 73.3459 185.019 112.89C185.019 152.433 152.82 184.545 113.169 184.545C73.5185 184.545 41.3469 152.433 41.3469 112.89Z" fill="black"/>
<path fill-rule="evenodd" clip-rule="evenodd" d="M113.183 36.8708C103.178 36.8708 93.2719 38.8361 84.0291 42.6545C74.7864 46.4729 66.3883 52.0696 59.3145 59.125C52.2407 66.1804 46.6297 74.5563 42.8019 83.7745C38.974 92.9926 37.0043 102.872 37.0053 112.85V112.85C37.0043 122.827 38.974 132.707 42.8019 141.925C46.6297 151.144 52.2407 159.519 59.3145 166.575C66.3883 173.63 74.7864 179.227 84.0291 183.045C93.2719 186.864 103.178 188.829 113.183 188.829C123.187 188.829 133.093 186.864 142.336 183.045C151.579 179.227 159.977 173.63 167.051 166.575C174.124 159.519 179.736 151.144 183.563 141.925C187.391 132.707 189.361 122.827 189.36 112.85C189.361 102.872 187.391 92.9926 183.563 83.7745C179.736 74.5563 174.124 66.1804 167.051 59.125C159.977 52.0696 151.579 46.4729 142.336 42.6545C133.093 38.8361 123.187 36.8708 113.183 36.8708ZM83.1128 40.4485C92.6461 36.5101 102.864 34.483 113.183 34.483C123.501 34.483 133.719 36.5101 143.252 40.4485C152.786 44.3869 161.448 50.1595 168.744 57.4367C176.04 64.7138 181.827 73.353 185.775 82.8609C189.724 92.3687 191.755 102.559 191.754 112.85C191.755 123.141 189.724 133.331 185.775 142.839C181.827 152.347 176.04 160.986 168.744 168.263C161.448 175.54 152.786 181.313 143.252 185.251C133.719 189.19 123.501 191.217 113.183 191.217C102.864 191.217 92.6461 189.19 83.1128 185.251C73.5796 181.313 64.9176 175.54 57.6215 168.263C50.3253 160.986 44.538 152.347 40.5898 142.839C36.6417 133.331 34.6101 123.141 34.6111 112.85C34.6101 102.559 36.6417 92.3687 40.5898 82.8609C44.538 73.353 50.3253 64.7138 57.6215 57.4367C64.9176 50.1595 73.5796 44.3869 83.1128 40.4485Z" fill="black"/>
<path fill-rule="evenodd" clip-rule="evenodd" d="M141.625 112.85C141.625 116.575 140.889 120.264 139.46 123.705C138.031 127.147 135.936 130.274 133.295 132.908C130.653 135.542 127.518 137.631 124.067 139.057C120.616 140.482 116.918 141.216 113.183 141.216C109.448 141.216 105.749 140.482 102.298 139.057C98.8475 137.631 95.712 135.542 93.0709 132.908C90.4298 130.274 88.3347 127.147 86.9053 123.705C85.476 120.264 84.7403 116.575 84.7403 112.85C84.7403 109.125 85.476 105.436 86.9053 101.995C88.3347 98.5535 90.4298 95.4265 93.0709 92.7925C95.712 90.1585 98.8475 88.0691 102.298 86.6435C105.749 85.218 109.448 84.4844 113.183 84.4844C116.918 84.4844 120.616 85.218 124.067 86.6435C127.518 88.0691 130.653 90.1585 133.295 92.7925C135.936 95.4265 138.031 98.5535 139.46 101.995C140.889 105.436 141.625 109.125 141.625 112.85V112.85Z" fill="white"/>
<path fill-rule="evenodd" clip-rule="evenodd" d="M113.183 85.6782C109.605 85.6782 106.062 86.381 102.756 87.7465C99.4509 89.112 96.4474 91.1135 93.9174 93.6366C91.3874 96.1597 89.3806 99.1551 88.0114 102.452C86.6422 105.748 85.9374 109.282 85.9374 112.85C85.9374 116.418 86.6422 119.952 88.0114 123.248C89.3806 126.545 91.3874 129.54 93.9174 132.063C96.4474 134.586 99.4509 136.588 102.756 137.953C106.062 139.319 109.605 140.022 113.183 140.022C116.761 140.022 120.304 139.319 123.609 137.953C126.915 136.588 129.918 134.586 132.448 132.063C134.978 129.54 136.985 126.545 138.354 123.248C139.723 119.952 140.428 116.418 140.428 112.85C140.428 109.282 139.723 105.748 138.354 102.452C136.985 99.1551 134.978 96.1597 132.448 93.6366C129.918 91.1135 126.915 89.112 123.609 87.7465C120.304 86.381 116.761 85.6782 113.183 85.6782ZM101.84 85.5405C105.436 84.0549 109.29 83.2904 113.183 83.2904C117.075 83.2904 120.929 84.0549 124.525 85.5405C128.121 87.026 131.389 89.2033 134.141 91.9482C136.893 94.6931 139.077 97.9517 140.566 101.538C142.056 105.124 142.822 108.968 142.822 112.85C142.822 116.732 142.056 120.576 140.566 124.162C139.077 127.748 136.893 131.007 134.141 133.752C131.389 136.497 128.121 138.674 124.525 140.159C120.929 141.645 117.075 142.409 113.183 142.409C109.29 142.409 105.436 141.645 101.84 140.159C98.2441 138.674 94.9767 136.497 92.2244 133.752C89.4722 131.007 87.2889 127.748 85.7994 124.162C84.3099 120.576 83.5432 116.732 83.5432 112.85C83.5432 108.968 84.3099 105.124 85.7994 101.538C87.2889 97.9517 89.4722 94.6931 92.2244 91.9482C94.9767 89.2033 98.2441 87.026 101.84 85.5405Z" fill="black"/>
<path fill-rule="evenodd" clip-rule="evenodd" d="M97.6158 112.844C97.6158 104.276 104.59 97.3203 113.182 97.3203C116.43 97.3203 119.449 98.3168 121.946 100.018L120.731 102.069C115.355 99.3628 110.567 101.784 108.673 104.896C107.722 106.458 107.588 108.027 108.209 109.202C108.823 110.363 110.385 111.531 113.694 111.828L114.27 111.88L114.587 112.361C116.441 115.173 116.985 117.679 116.047 119.632C115.108 121.585 112.964 122.42 110.794 122.54C106.442 122.782 100.522 120.292 97.8568 115.122L97.7587 114.931L97.733 114.719C97.6592 114.11 97.6158 113.485 97.6158 112.844ZM110.463 99.9889C104.496 101.24 100.01 106.524 100.01 112.844C100.01 113.305 100.037 113.762 100.085 114.218C102.308 118.31 107.17 120.35 110.661 120.156C112.439 120.057 113.497 119.414 113.887 118.6C114.254 117.838 114.276 116.428 112.885 114.143C109.465 113.717 107.168 112.351 106.091 110.316C104.961 108.178 105.387 105.693 106.626 103.657C107.502 102.219 108.826 100.922 110.463 99.9889Z" fill="black"/>
<path fill-rule="evenodd" clip-rule="evenodd" d="M115.982 98.523C117.838 98.5091 119.816 98.9413 121.819 99.9498L121.89 99.9853L121.955 100.03C126.056 102.824 128.75 107.528 128.75 112.856C128.75 121.424 121.783 128.38 113.191 128.38C105.235 128.38 98.6728 122.415 97.7422 114.731L99.9954 114.042C102.169 118.259 107.126 120.365 110.67 120.168C112.448 120.069 113.506 119.426 113.897 118.612C114.263 117.85 114.285 116.44 112.894 114.155C110.029 113.798 107.956 112.786 106.716 111.257C105.371 109.6 105.178 107.548 105.742 105.656C106.847 101.951 110.906 98.5609 115.982 98.523ZM120.67 102.046C119.02 101.228 117.442 100.9 116 100.911C111.942 100.941 108.832 103.671 108.037 106.337C107.651 107.631 107.824 108.827 108.577 109.756C109.351 110.709 110.905 111.589 113.703 111.84L114.279 111.892L114.596 112.373C116.451 115.185 116.994 117.691 116.056 119.644C115.118 121.597 112.973 122.432 110.803 122.552C108.108 122.702 104.811 121.804 102.059 119.871C104.394 123.548 108.509 125.992 113.191 125.992C120.459 125.992 126.355 120.107 126.355 112.856C126.355 108.378 124.108 104.419 120.67 102.046Z" fill="black"/>
<path fill-rule="evenodd" clip-rule="evenodd" d="M117.516 108.22C117.975 108.206 118.473 108.241 119 108.342L118.774 109.514L119 108.342C122.814 109.073 125.203 111.809 125.657 115.267C126.105 118.672 124.674 122.618 121.293 126L121.184 126.109L121.052 126.186C118.743 127.54 116.05 128.321 113.181 128.321C105.225 128.321 98.6628 122.356 97.7322 114.672L99.9854 113.983C102.159 118.2 107.116 120.306 110.66 120.109C112.438 120.01 113.496 119.367 113.887 118.553C114.253 117.79 114.275 116.381 112.884 114.095L111.819 113.988L112.273 112.582C112.677 111.332 114.004 108.323 117.516 108.22L117.551 109.413L117.516 108.22ZM114.807 112.657C116.483 115.33 116.946 117.711 116.046 119.585C115.108 121.538 112.963 122.373 110.793 122.493C108.098 122.643 104.801 121.745 102.049 119.811C104.384 123.489 108.499 125.933 113.181 125.933C115.555 125.933 117.783 125.302 119.706 124.205C122.606 121.251 123.609 118.056 123.283 115.578C122.961 113.123 121.332 111.22 118.548 110.686C118.197 110.619 117.875 110.598 117.586 110.606C116.088 110.65 115.258 111.677 114.807 112.657Z" fill="black"/>
<path fill-rule="evenodd" clip-rule="evenodd" d="M113.183 92.4262C107.751 92.4262 102.542 94.578 98.7019 98.4082C94.8614 102.238 92.7038 107.433 92.7038 112.85C92.7038 118.267 94.8614 123.461 98.7019 127.292C102.542 131.122 107.751 133.274 113.183 133.274C118.614 133.274 123.823 131.122 127.664 127.292C131.504 123.461 133.662 118.267 133.662 112.85C133.662 107.433 131.504 102.238 127.664 98.4082C123.823 94.578 118.614 92.4262 113.183 92.4262ZM97.009 96.7198C101.299 92.4418 107.116 90.0385 113.183 90.0385C119.249 90.0385 125.067 92.4418 129.357 96.7198C133.646 100.998 136.056 106.8 136.056 112.85C136.056 118.9 133.646 124.702 129.357 128.98C125.067 133.258 119.249 135.661 113.183 135.661C107.116 135.661 101.299 133.258 97.009 128.98C92.7194 124.702 90.3096 118.9 90.3096 112.85C90.3096 106.8 92.7194 100.998 97.009 96.7198Z" fill="black"/>
<g clip-path="url(#clip0_44_240)">
<path d="M85.078 69.5724L69.3105 71.6045V142.222L91.1815 144.762L112.544 156.447V86.3377L103.389 77.701L85.078 69.5724Z" fill="white"/>
<path d="M143.57 69.5724L159.337 71.6045V142.222L137.466 144.762L116.104 156.447V86.3377L125.259 77.701L143.57 69.5724Z" fill="white"/>
<path d="M170.019 84.3055H160.863L158.829 142.73H148.148L120.682 153.399L117.63 161.528L143.57 157.971L160.863 160.003L172.053 162.544V85.8297L170.019 84.3055Z" fill="white"/>
<path d="M58.1208 84.3055H67.276L69.3105 142.73H79.9917L107.458 153.399L110.509 161.528L84.5693 157.971L67.276 160.003L56.0863 162.544V85.8297L58.1208 84.3055Z" fill="white"/>
<path d="M64.8526 143.617L64.8578 143.568L64.8581 143.518L65.1734 87.7151L65.1791 86.7094H64.1734H57.8665H56.8665V87.7094V158.713V160.004L58.1162 159.681C66.7271 157.46 75.3405 156.055 83.9958 155.994C91.9833 155.944 99.9589 157.058 107.951 159.762L108.9 158.037C103.768 153.884 98.0435 150.829 91.9388 148.841C84.2507 146.337 75.9574 145.514 67.4779 146.235C66.1364 146.341 64.9697 145.348 64.8544 144.016L64.8531 144.002C64.8392 143.863 64.8397 143.739 64.8526 143.617ZM157.408 84.7933V84.7309L157.4 84.6691C157.38 84.5063 157.367 84.3891 157.367 84.2751C157.367 84.1405 157.375 84.0292 157.392 83.9308L157.408 83.8445V83.7569V72.4581V71.5483L156.502 71.4625C148.439 70.6984 140.104 71.5829 132.799 74.3475L132.799 74.3477C125.967 76.938 120.015 81.2154 116.132 87.3905L115.979 87.6346V87.9228V152.281V154.15L117.534 153.113C123.303 149.265 129.18 146.117 135.197 143.977L135.198 143.977C142.054 141.538 149.074 140.387 156.329 140.963L157.408 141.049V139.966V84.7933ZM171.796 165.482L171.767 165.472L171.738 165.464C162.124 162.716 152.528 160.874 142.997 160.812C133.694 160.75 124.387 162.389 115.04 166.506L114.963 166.54L114.892 166.586C114.489 166.852 114.005 166.997 113.504 166.99L113.49 166.99L113.475 166.99C112.988 166.997 112.5 166.854 112.081 166.582L112.014 166.538L111.941 166.506C102.602 162.379 93.2849 160.75 83.9829 160.812C74.4515 160.874 64.8654 162.716 55.242 165.464L55.2128 165.472L55.1841 165.482C54.9535 165.563 54.6904 165.608 54.4078 165.608L54.4024 165.608C53.091 165.615 52 164.535 52 163.194V84.2751C52 82.9385 53.0872 81.8509 54.4281 81.8509H64.2039H65.1986L65.2039 80.8562L65.265 69.416C65.265 69.4159 65.265 69.4158 65.265 69.4157C65.2723 68.2511 66.0906 67.2868 67.1957 67.0559C76.0488 65.2117 86.8182 65.6734 96.2359 69.2769L96.2361 69.277C102.737 71.7632 108.603 75.7158 112.874 81.3912L113.642 82.4114L114.448 81.4215C118.764 76.1242 124.548 72.2955 131.096 69.8167L131.097 69.8165C140.051 66.4201 150.415 65.594 160.189 67.0259L160.193 67.0264C161.396 67.1981 162.264 68.2382 162.264 69.42V80.8509V81.8509H163.264H163.274H172.572C173.913 81.8509 175 82.9385 175 84.2751V163.184C175 164.52 173.913 165.608 172.572 165.608C172.289 165.608 172.026 165.563 171.796 165.482ZM119.747 157.467L120.605 159.251C128.074 156.907 135.538 155.944 143.015 155.984C151.669 156.034 160.282 157.45 168.894 159.671L170.144 159.994V158.703V87.7094V86.7094H169.144H163.274H162.274V87.7094V143.817C162.274 145.154 161.187 146.242 159.846 146.242C159.646 146.242 159.46 146.219 159.286 146.178L159.247 146.168L159.208 146.162C151.51 144.954 144.067 145.958 136.836 148.535L136.835 148.535C131.019 150.613 125.329 153.706 119.747 157.467ZM109.535 152.43L111.123 153.582V151.621V87.8212V87.5573L110.993 87.3278C107.262 80.7512 101.244 76.3826 94.5194 73.8103C86.9071 70.8978 78.3819 70.2479 70.9499 71.3055L70.0957 71.427L70.0908 72.2898L69.7042 140.174L69.6983 141.216L70.74 141.179C78.5771 140.898 86.2309 141.891 93.4244 144.24L93.4259 144.24C99.1469 146.098 104.566 148.825 109.535 152.43Z" fill="black" stroke="white" stroke-width="2"/>
</g>
<defs>
<clipPath id="clip0_44_240">
<rect width="125" height="103" fill="white" transform="translate(51 65)"/>
</clipPath>
</defs>
</svg>
